# xmcd
#
# Track frame offsets:
#        150
#        1660
#        17350
#        31387
#        45830
#        59787
#        75562
#        92805
#        109712
#        127082
#        144775
#        162737
#        181362
#
# Disc length: 2652 seconds
#
# Revision: 0
# Processed by: cddbd v1.5.1PL0 Copyright (c) Steve Scherf et al.
# Submitted via: ExactAudioCopy v0.95a3
#
DISCID=9c0a5a0d
DTITLE=Forty Deuce - Nothing To Lose
DYEAR=2005
DGENRE=Hard Rock
TTITLE0=Intro
TTITLE1=Oh My God(I Fucked Up Again)
TTITLE2=I Still
TTITLE3=Start It Up
TTITLE4=Complicated
TTITLE5=Say
TTITLE6=Heaven
TTITLE7=Stand Up
TTITLE8=Next To Me
TTITLE9=Standing In The Rain
TTITLE10=Wanted
TTITLE11=Nothing To Lose
TTITLE12=Standing In The Rain(Japanese Version)
EXTD=
EXTT0=
EXTT1=
EXTT2=
EXTT3=
EXTT4=
EXTT5=
EXTT6=
EXTT7=
EXTT8=
EXTT9=
EXTT10=
EXTT11=
EXTT12=
PLAYORDER=
